<svg fill="#011892" version="1.1" id="Capa_1" xmlns="http://www.w3.org/2000/svg" xmlns:xlink="http://www.w3.org/1999/xlink" viewBox="0 0 369.955 369.955" xml:space="preserve" stroke="#ffffff"><g id="SVGRepo_bgCarrier" stroke-width="0"></g><g id="SVGRepo_tracerCarrier" stroke-linecap="round" stroke-linejoin="round"></g><g id="SVGRepo_iconCarrier"> <g> <path d="M184.978,0.003C82.821,0.003,0,82.821,0,184.981c0,102.147,82.821,184.971,184.978,184.971 c102.16,0,184.978-82.824,184.978-184.971C369.955,82.815,287.144,0.003,184.978,0.003z M204.854,150.183l-25.469,39.427 l25.469,39.422h49.738l-9.47-9.47c-5.206-5.212-5.206-13.643,0-18.854c5.218-5.207,13.661-5.207,18.861,0l29.675,29.693 c2.703,1.314,4.876,3.477,6.186,6.179l6.881,6.894l-40.532,40.532c-2.605,2.606-6.005,3.909-9.427,3.909 c-3.399,0-6.815-1.303-9.428-3.909c-5.2-5.212-5.2-13.643,0-18.849l9.463-9.458h-59.207c-1.045,0-2.041-0.144-3.014-0.372 c-0.265-0.061-0.505-0.156-0.757-0.24c-0.727-0.204-1.411-0.463-2.078-0.793c-0.288-0.138-0.564-0.3-0.853-0.468 c-0.637-0.372-1.234-0.793-1.786-1.261c-0.229-0.181-0.457-0.349-0.661-0.553c-0.741-0.697-1.42-1.489-1.99-2.354 c-0.024-0.023-0.036-0.042-0.062-0.065l-22.879-35.423l-22.881,35.423c-0.012,0.023-0.036,0.042-0.06,0.065 c-0.567,0.865-1.237,1.651-1.981,2.354c-0.213,0.204-0.441,0.372-0.669,0.559c-0.564,0.462-1.144,0.889-1.777,1.255 c-0.276,0.168-0.564,0.33-0.868,0.468c-0.652,0.33-1.345,0.583-2.066,0.793c-0.246,0.072-0.499,0.18-0.756,0.24 c-0.97,0.216-1.967,0.372-3.012,0.372h-0.018l-65.149-0.012c-7.359,0-13.331-5.969-13.331-13.331c0-7.355,5.972-13.33,13.331-13.33 l57.91,0.012l25.463-39.422l-25.463-39.427l-57.91-0.006c-7.359,0-13.331-5.969-13.331-13.331c0-7.359,5.972-13.331,13.331-13.331 l65.167,0.006c0.018,0,0.042,0.012,0.072,0.012c0.745,0,1.477,0.099,2.198,0.216c0.147,0.024,0.312,0.024,0.454,0.048 c0.669,0.15,1.33,0.382,1.981,0.622c0.153,0.062,0.336,0.099,0.495,0.168c0.562,0.231,1.09,0.553,1.618,0.88 c0.21,0.12,0.444,0.213,0.64,0.342c0.315,0.216,0.598,0.499,0.898,0.739c0.375,0.306,0.762,0.594,1.108,0.928 c0.177,0.177,0.324,0.405,0.504,0.61c0.405,0.468,0.816,0.945,1.162,1.462c0.024,0.033,0.048,0.057,0.06,0.081l22.881,35.422 l22.879-35.422c0.026-0.024,0.051-0.048,0.068-0.081c0.34-0.499,0.727-0.952,1.126-1.408c0.184-0.219,0.352-0.465,0.553-0.676 c0.258-0.258,0.573-0.468,0.855-0.705c1.039-0.901,2.174-1.664,3.417-2.18c0.029-0.019,0.065-0.019,0.102-0.036 c0.769-0.318,1.562-0.559,2.378-0.739c0.12-0.024,0.246-0.012,0.36-0.042c0.769-0.129,1.514-0.216,2.288-0.222 c0.018,0,0.042-0.012,0.078-0.012h58.103l-10.587-10.581c-5.206-5.209-5.206-13.646,0-18.846c5.218-5.209,13.661-5.209,18.861,0 l42.742,42.757l-9.403,9.422l-0.024,0.018L266.205,177.4c-2.606,2.606-6.005,3.909-9.428,3.909c-3.398,0-6.815-1.303-9.428-3.909 c-5.2-5.209-5.2-13.646,0-18.846l8.358-8.353h-50.854V150.183z"></path> </g> </g></svg>